<svg xmlns="http://www.w3.org/2000/svg" width="1200" height="420" viewBox="0 0 1200 420" role="img" aria-label="Muhammad Sufiyan — Java Full Stack Developer and Founder of FileWalaTool">
  <defs>
    <linearGradient id="bg" x1="0" y1="0" x2="1" y2="1">
      <stop offset="0%" stop-color="#0B111A"/>
      <stop offset="100%" stop-color="#101C2C"/>
    </linearGradient>
    <linearGradient id="brand" x1="0" y1="0" x2="1" y2="0">
      <stop offset="0%" stop-color="#58A6FF"/>
      <stop offset="100%" stop-color="#7EE787"/>
    </linearGradient>
    <radialGradient id="glow" cx="0" cy="0" r="1" gradientTransform="translate(1050 126) rotate(135) scale(345 285)">
      <stop offset="0%" stop-color="#58A6FF" stop-opacity=".24"/>
      <stop offset="100%" stop-color="#58A6FF" stop-opacity="0"/>
    </radialGradient>
    <filter id="shadow" x="-20%" y="-25%" width="140%" height="150%">
      <feDropShadow dx="0" dy="14" stdDeviation="18" flood-color="#010409" flood-opacity=".48"/>
    </filter>
  </defs>
  <rect width="1200" height="420" rx="26" fill="url(#bg)"/>
  <rect width="1200" height="420" rx="26" fill="url(#glow)"/>
  <path d="M0 336C185 286 363 410 555 330C746 249 954 390 1200 300V420H0V336Z" fill="#101A29"/>
  <path d="M0 347C200 296 370 408 560 336C755 261 963 390 1200 317" fill="none" stroke="#238636" stroke-opacity=".35" stroke-width="2"/>
  <rect x="58" y="56" width="6" height="308" rx="3" fill="url(#brand)"/>
  <text x="92" y="91" fill="#7DD3FC" font-family="Arial, Helvetica, sans-serif" font-size="14" font-weight="700" letter-spacing="2">PRODUCT BUILDER / SOFTWARE ENGINEER</text>
  <text x="92" y="162" fill="#F0F6FC" font-family="Arial, Helvetica, sans-serif" font-size="54" font-weight="700">Muhammad Sufiyan</text>
  <text x="94" y="205" fill="#A7C7F5" font-family="Arial, Helvetica, sans-serif" font-size="23" font-weight="600">Java Full Stack Developer · Founder of FileWalaTool</text>
  <text x="94" y="244" fill="#AAB7C4" font-family="Arial, Helvetica, sans-serif" font-size="18">Building fast, useful web products with Java, Spring Boot, React, and SQL.</text>
  <g transform="translate(92 280)">
    <rect width="104" height="32" rx="16" fill="#162B42" stroke="#315A84"/>
    <text x="26" y="21" fill="#BFDBFE" font-family="Arial, Helvetica, sans-serif" font-size="12" font-weight="700">JAVA</text>
    <rect x="116" width="136" height="32" rx="16" fill="#142D25" stroke="#2D6A50"/>
    <text x="137" y="21" fill="#BBF7D0" font-family="Arial, Helvetica, sans-serif" font-size="12" font-weight="700">SPRING BOOT</text>
    <rect x="264" width="98" height="32" rx="16" fill="#25234D" stroke="#514D9B"/>
    <text x="287" y="21" fill="#DDD6FE" font-family="Arial, Helvetica, sans-serif" font-size="12" font-weight="700">REACT</text>
  </g>
  <circle cx="99" cy="350" r="5" fill="#7EE787"/>
  <text x="115" y="355" fill="#C9D1D9" font-family="Arial, Helvetica, sans-serif" font-size="14">Open to Java and Full Stack opportunities</text>
  <g filter="url(#shadow)">
    <rect x="756" y="57" width="378" height="298" rx="20" fill="#121C2A" stroke="#334155"/>
    <rect x="781" y="82" width="328" height="44" rx="12" fill="#0D1117" stroke="#30363D"/>
    <circle cx="803" cy="104" r="6" fill="#FF5F56"/><circle cx="823" cy="104" r="6" fill="#FFBD2E"/><circle cx="843" cy="104" r="6" fill="#27C93F"/>
    <text x="871" y="109" fill="#8B949E" font-family="monospace" font-size="12">filewalatool / live product</text>
    <text x="783" y="164" fill="#7EE787" font-family="monospace" font-size="12">FEATURED PRODUCT</text>
    <text x="783" y="197" fill="#F0F6FC" font-family="Arial, Helvetica, sans-serif" font-size="24" font-weight="700">FileWalaTool</text>
    <text x="783" y="221" fill="#8B949E" font-family="Arial, Helvetica, sans-serif" font-size="14">Browser-based PDF, image, and document utilities</text>
    <rect x="782" y="250" width="99" height="64" rx="12" fill="#0D1117" stroke="#30363D"/>
    <text x="800" y="274" fill="#58A6FF" font-family="monospace" font-size="11">STATUS</text>
    <text x="800" y="298" fill="#F0F6FC" font-family="Arial, Helvetica, sans-serif" font-size="16" font-weight="700">Live</text>
    <rect x="895" y="250" width="99" height="64" rx="12" fill="#0D1117" stroke="#30363D"/>
    <text x="913" y="274" fill="#C4B5FD" font-family="monospace" font-size="11">MODE</text>
    <text x="913" y="298" fill="#F0F6FC" font-family="Arial, Helvetica, sans-serif" font-size="16" font-weight="700">Browser</text>
    <rect x="1008" y="250" width="100" height="64" rx="12" fill="#0D1117" stroke="#30363D"/>
    <text x="1026" y="274" fill="#FDE68A" font-family="monospace" font-size="11">FOCUS</text>
    <text x="1026" y="298" fill="#F0F6FC" font-family="Arial, Helvetica, sans-serif" font-size="16" font-weight="700">UX</text>
  </g>
</svg>