<svg xmlns="http://www.w3.org/2000/svg" width="1200" height="360" viewBox="0 0 1200 360" role="img" aria-label="Muhammad Sufiyan - Java Full Stack Developer and Founder of FileWalaTool">
  <rect width="1200" height="360" rx="22" fill="#0D1117"/>
  <path d="M0 305C180 258 330 380 520 302C708 225 930 342 1200 238V360H0V305Z" fill="#111B2A"/>
  <path d="M0 318C220 265 405 387 603 303C790 223 1000 337 1200 262" fill="none" stroke="#238636" stroke-opacity=".42" stroke-width="2"/>
  <path d="M0 336C225 282 408 403 604 321C796 239 1003 352 1200 279" fill="none" stroke="#58A6FF" stroke-opacity=".28" stroke-width="2"/>
  <text x="72" y="82" fill="#58A6FF" font-family="monospace" font-size="15">PRODUCT BUILDER / SOFTWARE ENGINEER</text>
  <text x="72" y="148" fill="#F0F6FC" font-family="Arial, Helvetica, sans-serif" font-size="50" font-weight="700">Muhammad Sufiyan</text>
  <text x="74" y="191" fill="#AAB7C4" font-family="Arial, Helvetica, sans-serif" font-size="20">Java Full Stack Developer · Founder of FileWalaTool</text>
  <text x="74" y="224" fill="#8B949E" font-family="Arial, Helvetica, sans-serif" font-size="17">Building practical web products with Java, Spring Boot, React, and SQL.</text>
  <rect x="74" y="250" width="188" height="36" rx="18" fill="#238636"/>
  <text x="99" y="274" fill="#FFFFFF" font-family="Arial, Helvetica, sans-serif" font-size="14" font-weight="700">OPEN TO WORK</text>
  <rect x="714" y="58" width="416" height="78" rx="14" fill="#161B22" stroke="#30363D"/>
  <rect x="738" y="80" width="9" height="34" rx="4.5" fill="#7EE787"/>
  <text x="768" y="88" fill="#F0F6FC" font-family="Arial, Helvetica, sans-serif" font-size="19" font-weight="700">FileWalaTool</text>
  <text x="768" y="113" fill="#8B949E" font-family="Arial, Helvetica, sans-serif" font-size="14">Browser-based PDF, image, and document tools</text>
  <rect x="714" y="154" width="195" height="82" rx="14" fill="#161B22" stroke="#30363D"/>
  <text x="737" y="184" fill="#58A6FF" font-family="monospace" font-size="14">BACKEND</text>
  <text x="737" y="213" fill="#F0F6FC" font-family="Arial, Helvetica, sans-serif" font-size="17">Java + Spring Boot</text>
  <rect x="935" y="154" width="195" height="82" rx="14" fill="#161B22" stroke="#30363D"/>
  <text x="958" y="184" fill="#A371F7" font-family="monospace" font-size="14">FRONTEND</text>
  <text x="958" y="213" fill="#F0F6FC" font-family="Arial, Helvetica, sans-serif" font-size="17">React + JavaScript</text>
  <rect x="714" y="256" width="416" height="38" rx="12" fill="#0D1117" stroke="#30363D"/>
  <text x="737" y="280" fill="#AAB7C4" font-family="monospace" font-size="14">BUILD · IMPROVE · DEPLOY · REPEAT</text>
</svg>